# AST/ASF file generated using VICON BodyLanguage
# -----------------------------------------------
:version 1.10
:name VICON
:units
  mass 1.0
  length 0.45
  angle deg
:documentation
   .ast/.asf automatically generated from VICON data using
   VICON BodyBuilder and BodyLanguage model FoxedUp or BRILLIANT.MOD
:root
   order TX TY TZ RX RY RZ
   axis XYZ
   position 0 0 0  
   orientation 0 0 0 
:bonedata
  begin
     id 1 
     name lhipjoint
     direction 0.722297 -0.617336 0.311742 
     length 2.6635 
     axis 0 0 0  XYZ
  end
  begin
     id 2 
     name lfemur
     direction 0.34202 -0.939693 0  
     length 7.39349  
     axis 0 0 20  XYZ
    dof rx ry rz
    limits (-160.0 20.0)
           (-70.0 70.0)
           (-60.0 70.0)
  end
  begin
     id 3 
     name ltibia
     direction 0.34202 -0.939693 0   
     length 7.36294   
     axis 0 0 20   XYZ
    dof rx
    limits (-10.0 170.0)
  end
  begin
     id 4 
     name lfoot
     direction 0.104879 -0.288152 0.951824   
     length 2.16981   
     axis -90 7.62852e-016 20   XYZ
    dof rx rz
    limits (-45.0 90.0)
           (-70.0 20.0)
  end
  begin
     id 5 
     name ltoes
     direction 1.53586e-011 -4.21895e-011 1   
     length 1.08218   
     axis -90 7.62852e-016 20   XYZ
    dof rx
    limits (-90.0 20.0)
  end
  begin
     id 6 
     name rhipjoint
     direction -0.75102 -0.589393 0.297631   
     length 2.78977  
     axis 0 0 0  XYZ 
  end
  begin
     id 7 
     name rfemur
     direction -0.34202 -0.939693 0   
     length 7.46076   
     axis 0 0 -20   XYZ
    dof rx ry rz
    limits (-160.0 20.0)
           (-70.0 70.0)
           (-70.0 60.0)
  end
  begin
     id 8 
     name rtibia
     direction -0.34202 -0.939693 0   
     length 7.31726   
     axis 0 0 -20   XYZ
    dof rx
    limits (-10.0 170.0)
 end
 begin
     id 9 
     name rfoot
     direction -0.107991 -0.296704 0.948844   
     length 2.09388  
     axis -90 -7.62852e-016 -20   XYZ
    dof rx rz
    limits (-45.0 90.0)
           (-20.0 70.0)
  end
  begin
     id 10 
     name rtoes
     direction -1.53559e-011 -4.21911e-011 1   
     length 1.04433   
     axis -90 -7.62852e-016 -20   XYZ
    dof rx
    limits (-90.0 20.0)
  end
  begin
     id 11 
     name lowerback
     direction 0.0165164 0.98272 0.184358   
     length 1.71896   
     axis 0 0 0   XYZ
    dof rx ry rz
    limits (-20.0 45.0)
           (-30.0 30.0)
           (-30.0 30.0)
  end
  begin
     id 12 
     name upperback
     direction -0.00887249 0.992297 0.123566   
     length 1.71504   
     axis 0 0 0   XYZ
    dof rx ry rz
    limits (-20.0 45.0)
           (-30.0 30.0)
           (-30.0 30.0)
  end
  begin
     id 13 
     name thorax
     direction -0.0157026 0.998908 0.0440032   
     length 1.77022   
     axis 0 0 0   XYZ
    dof rx ry rz
    limits (-20.0 45.0)
           (-30.0 30.0)
           (-30.0 30.0)
  end
  begin
     id 14 
     name lowerneck
     direction -0.0238856 0.998137 0.0561411   
     length 1.89341   
     axis 0 0 0   XYZ
    dof rx ry rz
    limits (-20.0 45.0)
           (-30.0 30.0)
           (-30.0 30.0)
  end
  begin
     id 15 
     name upperneck
     direction 0.0276574 0.952253 -0.304056   
     length 1.86999   
     axis 0 0 0   XYZ
    dof rx ry rz
    limits (-20.0 45.0)
           (-30.0 30.0)
           (-30.0 30.0)
  end
  begin
     id 16
     name head
     direction 0.00800083 0.994258 -0.106712  
     length 1.91492  
     axis 0 0 0   XYZ
    dof rx ry rz
    limits (-20.0 45.0)
           (-30.0 30.0)
           (-30.0 30.0)
  end
  begin
     id 17 
     name lclavicle
     direction 0.97203 0.225407 0.06595  
     length 3.34889  
     axis 0 0 0   XYZ
    dof ry rz
    limits (-20.0 10.0)
           (0.0 20.0)
  end
  begin
     id 18 
     name lhumerus
     direction 1 -4.48973e-011 2.20267e-027   
     length 4.85645   
     axis 180 -30 -90   XYZ
    dof rx ry rz
    limits (-60.0 90.0)
           (-90.0 90.0)
           (-90.0 90.0)
  end
  begin
     id 19
     name lradius
     direction 1 -4.4897e-011 4.60472e-027   
     length 2.79874   
     axis 180 -30 -90   XYZ
    dof rx
    limits (-10.0 170.0)
  end
  begin
     id 20
     name lwrist
     direction 1 -4.48952e-011 1.14928e-026   
     length 1.39937   
     axis -6.29373e-015 90 90   XYZ
    dof ry
    limits (-180.0 0.0)
 end
  begin
     id 21 
     name lhand
     direction 1 -4.48967e-011 2.29886e-026   
     length 0.573398   
     axis -1.46689e-014 90 90   XYZ
    dof rx rz
    limits (-90.0 90.0)
           (-45.0 45.0)
  end
  begin
     id 22 
     name lfingers
     direction 1 -4.48955e-011 4.59726e-026   
     length 0.462289   
     axis -2.93383e-014 90 90   XYZ
    dof rx
    limits (0.0 90.0)
  end
  begin
     id 23
     name lthumb
     direction 0.707107 -6.34866e-011 0.707107   
     length 0.663757   
     axis -90 45 5.69224e-014   XYZ
    dof rx rz
    limits (-45.0 45.0)
           (-45.0 45.0)
  end
  begin
     id 24 
     name rclavicle
     direction -0.981571 0.157346 0.108443   
     length 3.35257  
     axis 0 0 0   XYZ 
    dof ry rz
    limits (-10.0 20.0)
           (-20.0 0.0)
  end
  begin
     id 25 
     name rhumerus
     direction -1 -4.48967e-011 8.58308e-029  
     length 4.67018   
     axis 180 30 90   XYZ
    dof rx ry rz
    limits (-90.0 60.0)
           (-90.0 90.0)
           (-90.0 90.0)
  end
  begin
     id 26 
     name rradius
     direction -1 -4.48958e-011 4.52548e-027   
     length 2.65534   
     axis 180 30 90   XYZ
    dof rx
    limits (-10.0 170.0)
  end
  begin
     id 27 
     name rwrist
     direction -1 -4.48977e-011 1.14952e-026   
     length 1.32767   
     axis -6.29373e-015 -90 -90   XYZ
    dof ry
    limits (-180.0 0.0)
  end
  begin
     id 28
     name rhand
     direction -1 -4.48924e-011 2.29804e-026   
     length 0.594069   
     axis -1.46689e-014 -90 -90   XYZ
    dof rx rz
    limits (-90.0 90.0)
           (-45.0 45.0)
  end
  begin
     id 29
     name rfingers
     direction -1 -4.48998e-011 4.59888e-026   
     length 0.478954   
     axis -2.93383e-014 -90 -90   XYZ
    dof rx
    limits (0.0 90.0)
  end
  begin
     id 30
     name rthumb
     direction -0.707107 -6.34933e-011 0.707107   
     length 0.687685   
     axis -90 -45 -5.69224e-014   XYZ
    dof rx rz
    limits (-45.0 45.0)
           (-45.0 45.0)
  end
:hierarchy
  begin
    root lhipjoint rhipjoint lowerback
    lhipjoint lfemur
    lfemur ltibia
    ltibia lfoot
    lfoot ltoes
    rhipjoint rfemur
    rfemur rtibia
    rtibia rfoot
    rfoot rtoes
    lowerback upperback
    upperback thorax
    thorax lowerneck lclavicle rclavicle
    lowerneck upperneck
    upperneck head
    lclavicle lhumerus
    lhumerus lradius
    lradius lwrist
    lwrist lhand lthumb
    lhand lfingers
    rclavicle rhumerus
    rhumerus rradius
    rradius rwrist
    rwrist rhand rthumb
    rhand rfingers
  end

#!OML:ASF E:\pregnant2\Project 1\Capture day 1\Session 1\pregnant2.ASF
:FULLY-SPECIFIED
:DEGREES
355
root 6.3085 17.1102 9.63347 -154.13 5.94269 176.013
lowerback -2.12146 -1.20394 -3.09819
upperback -13.9848 0.231203 0.173686
thorax -14.0434 1.36213 1.67354
lowerneck -7.60372 -6.96291 -3.24787
upperneck 48.9552 3.43357 -5.47709
head 21.296 3.27268 -0.411106
rclavicle -1.38652e-014 1.78906e-014
rhumerus -48.0913 13.5458 -86.2771
rradius 46.7221
rwrist 3.45388
rhand -12.5059 -17.3683
rfingers 7.12502
rthumb 13.5694 -46.9061
lclavicle -1.38652e-014 1.78906e-014
lhumerus -52.0513 3.26188 83.0224
lradius 37.8311
lwrist 8.48964
lhand -8.61096 29.7673
lfingers 7.12502
lthumb 17.3209 59.0154
rfemur -47.4106 9.75229 18.8946
rtibia 36.1116
rfoot -14.8436 -16.2831
rtoes 8.46137
lfemur -77.3159 1.49533 -29.5433
ltibia 93.5849
lfoot -13.4449 8.50051
ltoes -20.6585
356
root 6.31922 17.1122 9.55764 -154.204 6.01727 175.833
lowerback -2.01366 -1.16954 -3.28036
upperback -13.9259 0.235457 0.0984452
thorax -14.0397 1.37002 1.69351
lowerneck -7.6677 -6.92533 -3.25107
upperneck 48.889 3.4358 -5.44815
head 21.2607 3.26273 -0.398586
rclavicle -6.70898e-015 7.55382e-015
rhumerus -47.8731 13.8663 -86.3885
rradius 47.0792
rwrist 3.28079
rhand -12.5403 -17.3004
rfingers 7.12502
rthumb 13.5363 -46.8404
lclavicle -6.70898e-015 7.55382e-015
lhumerus -52.125 3.19154 83.0546
lradius 38.2362
lwrist 8.94511
lhand -9.41326 29.9188
lfingers 7.12502
lthumb 16.5486 59.2332
rfemur -47.1824 9.77987 18.746
rtibia 36.3617
rfoot -15.2238 -16.3951
rtoes 8.27044
lfemur -78.4875 1.29632 -29.8842
ltibia 93.4628
lfoot -13.8587 8.74723
ltoes -20.7643
357
root 6.3295 17.1131 9.48185 -154.262 6.07529 175.669
lowerback -1.91817 -1.14261 -3.43823
upperback -13.8769 0.235214 0.0292136
thorax -14.0404 1.37507 1.70658
lowerneck -7.71518 -6.88518 -3.2492
upperneck 48.823 3.44967 -5.42819
head 21.2215 3.25905 -0.389168
rclavicle 9.69075e-015 -1.90833e-014
rhumerus -47.6541 14.1635 -86.4908
rradius 47.3955
rwrist 3.08403
rhand -12.5671 -17.2211
rfingers 7.12502
rthumb 13.5104 -46.7628
lclavicle 9.69075e-015 -1.90833e-014
lhumerus -52.2011 3.09649 83.0963
lradius 38.5712
lwrist 8.90023
lhand -10.0436 29.999
lfingers 7.12502
lthumb 15.9416 59.3629
rfemur -46.9753 9.82957 18.6038
rtibia 36.6257
rfoot -15.6184 -16.5415
rtoes 8.10743
lfemur -79.617 1.0937 -30.1942
ltibia 93.2042
lfoot -14.2608 8.99896
ltoes -20.9031
358
root 6.33963 17.1122 9.40712 -154.286 6.10813 175.518
lowerback -1.83854 -1.12809 -3.57641
upperback -13.8436 0.225511 -0.0327645
thorax -14.0498 1.37651 1.7169
lowerneck -7.74859 -6.84208 -3.24066
upperneck 48.7557 3.47624 -5.42107
head 21.1782 3.26161 -0.385032
rclavicle 1.61513e-015 3.97569e-015
rhumerus -47.431 14.4427 -86.5849
rradius 47.67
rwrist 2.87924
rhand -12.558 -17.1751
rfingers 7.12502
rthumb 13.5192 -46.7163
lclavicle 1.61513e-015 3.97569e-015
lhumerus -52.27 2.98192 83.1389
lradius 38.8186
lwrist 8.35277
lhand -10.452 30.0202
lfingers 7.12502
lthumb 15.5483 59.4151
rfemur -46.8096 9.88666 18.4714
rtibia 36.9023
rfoot -16.0182 -16.7182
rtoes 7.94812
lfemur -80.7263 0.882198 -30.4757
ltibia 92.8142
lfoot -14.6257 9.23686
ltoes -21.0392
359
root 6.34965 17.1094 9.33332 -154.277 6.11832 175.381
lowerback -1.7788 -1.1249 -3.69446
upperback -13.8223 0.20708 -0.0884693
thorax -14.0608 1.37401 1.72333
lowerneck -7.78572 -6.79817 -3.23485
upperneck 48.6915 3.50306 -5.40909
head 21.1387 3.26414 -0.377813
rclavicle 1.50579e-014 -9.54166e-015
rhumerus -47.1918 14.7062 -86.6727
rradius 47.8935
rwrist 2.69755
rhand -12.5384 -17.1467
rfingers 7.12502
rthumb 13.5382 -46.6866
lclavicle 1.50579e-014 -9.54166e-015
lhumerus -52.3305 2.85739 83.1733
lradius 38.9586
lwrist 7.28811
lhand -10.6895 29.8943
lfingers 7.12502
lthumb 15.3196 59.3069
rfemur -46.684 9.94356 18.3537
rtibia 37.1836
rfoot -16.413 -16.9135
rtoes 7.78223
lfemur -81.8133 0.665217 -30.7304
ltibia 92.2951
lfoot -14.933 9.45722
ltoes -21.1186
360
root 6.35881 17.1062 9.25951 -154.27 6.11561 175.262
lowerback -1.7223 -1.1221 -3.78019
upperback -13.7964 0.189338 -0.140536
thorax -14.0638 1.36754 1.71607
lowerneck -7.83404 -6.75017 -3.22957
upperneck 48.6189 3.52554 -5.39261
head 21.0954 3.26312 -0.369613
rclavicle -1.09083e-014 8.74653e-015
rhumerus -46.9394 14.9506 -86.7486
rradius 48.0815
rwrist 2.56324
rhand -12.5026 -17.1486
rfingers 7.12502
rthumb 13.5726 -46.6862
lclavicle -1.09083e-014 8.74653e-015
lhumerus -52.38 2.74305 83.1829
lradius 39.0158
lwrist 5.77711
lhand -10.7275 29.6372
lfingers 7.12502
lthumb 15.283 59.0526
rfemur -46.5447 9.98416 18.2662
rtibia 37.4531
rfoot -16.801 -17.0983
rtoes 7.61782
lfemur -82.8196 0.453314 -30.9614
ltibia 91.6443
lfoot -15.1865 9.67748
ltoes -21.1398
361
root 6.3669 17.1032 9.18347 -154.279 6.11779 175.166
lowerback -1.67424 -1.11399 -3.83125
upperback -13.7639 0.180015 -0.18928
thorax -14.0535 1.36013 1.69285
lowerneck -7.88594 -6.70437 -3.23605
upperneck 48.5563 3.54883 -5.36768
head 21.0614 3.26188 -0.354376
rclavicle -5.44173e-015 1.59028e-015
rhumerus -46.6813 15.1838 -86.8185
rradius 48.2245
rwrist 2.48133
rhand -12.4696 -17.1535
rfingers 7.12502
rthumb 13.6044 -46.689
lclavicle -5.44173e-015 1.59028e-015
lhumerus -52.4249 2.64165 83.1602
lradius 38.9891
lwrist 3.9248
lhand -10.5775 29.2855
lfingers 7.12502
lthumb 15.4275 58.6898
rfemur -46.3662 10.0116 18.2136
rtibia 37.7009
rfoot -17.1835 -17.2559
rtoes 7.44188
lfemur -83.7175 0.264064 -31.1709
ltibia 90.8651
lfoot -15.4013 9.91077
ltoes -21.1016
362
root 6.3739 17.1015 9.1051 -154.31 6.13008 175.093
lowerback -1.6294 -1.09865 -3.84742
upperback -13.7137 0.177959 -0.237991
thorax -14.0195 1.34913 1.65065
lowerneck -7.9755 -6.65501 -3.23833
upperneck 48.5035 3.57593 -5.34025
head 21.047 3.26098 -0.338074
rclavicle -1.07841e-014 6.75868e-015
rhumerus -46.3978 15.4042 -86.885
rradius 48.3245
rwrist 2.45854
rhand -12.4459 -17.146
rfingers 7.12502
rthumb 13.6273 -46.68
lclavicle -1.07841e-014 6.75868e-015
lhumerus -52.446 2.57309 83.0843
lradius 38.9052
lwrist 1.8672
lhand -10.2433 28.8368
lfingers 7.12502
lthumb 15.7493 58.216
rfemur -46.1346 10.0253 18.1945
rtibia 37.9146
rfoot -17.5535 -17.3796
rtoes 7.25964
lfemur -84.4944 0.103108 -31.3617
ltibia 89.9572
lfoot -15.578 10.1626
ltoes -21.0222
363
root 6.38062 17.0998 9.02575 -154.333 6.13765 175.03
lowerback -1.59484 -1.08647 -3.84894
upperback -13.6751 0.176998 -0.282196
thorax -13.9932 1.3392 1.60464
lowerneck -8.03559 -6.60783 -3.24697
upperneck 48.4546 3.61384 -5.32029
head 21.0278 3.26573 -0.32171
rclavicle 1.54058e-015 -9.14409e-015
rhumerus -46.1378 15.6125 -86.9521
rradius 48.3899
rwrist 2.48638
rhand -12.4131 -17.1434
rfingers 7.12502
rthumb 13.6589 -46.6752
lclavicle 1.54058e-015 -9.14409e-015
lhumerus -52.4828 2.53248 82.9642
lradius 38.7923
lwrist -0.221048
lhand -9.75826 28.3351
lfingers 7.12502
lthumb 16.2164 57.6768
rfemur -45.8905 10.0232 18.1951
rtibia 38.1001
rfoot -17.9104 -17.4844
rtoes 7.08591
lfemur -85.1931 -0.0430239 -31.5401
ltibia 88.9321
lfoot -15.7198 10.4317
ltoes -21.0121
364
root 6.38681 17.0984 8.9444 -154.362 6.1555 174.978
lowerback -1.56847 -1.07266 -3.83647
upperback -13.6359 0.179516 -0.327014
thorax -13.9612 1.32915 1.54998
lowerneck -8.09631 -6.55936 -3.24438
upperneck 48.4137 3.66471 -5.31438
head 21.0164 3.27739 -0.311779
rclavicle 1.98785e-016 1.51076e-014
rhumerus -45.8903 15.8108 -87.0278
rradius 48.4282
rwrist 2.55037
rhand -12.3803 -17.1422
rfingers 7.12502
rthumb 13.6905 -46.6719
lclavicle 1.98785e-016 1.51076e-014
lhumerus -52.5156 2.51809 82.8021
lradius 38.666
lwrist -2.15381
lhand -9.18343 27.8021
lfingers 7.12502
lthumb 16.7699 57.0978
rfemur -45.6188 10.0117 18.2106
rtibia 38.259
rfoot -18.2565 -17.563
rtoes 6.89862
lfemur -85.7937 -0.164264 -31.7108
ltibia 87.7973
lfoot -15.8252 10.7177
ltoes -21.1348
365
root 6.39276 17.0967 8.86188 -154.385 6.1711 174.93
lowerback -1.549 -1.06392 -3.81768
upperback -13.6054 0.178655 -0.369214
thorax -13.9354 1.31836 1.49464
lowerneck -8.14082 -6.5082 -3.22942
upperneck 48.3691 3.72814 -5.32814
head 20.9987 3.2955 -0.311765
rclavicle 4.96962e-015 1.07344e-014
rhumerus -45.6669 16.0065 -87.1156
rradius 48.444
rwrist 2.64109
rhand -12.3715 -17.1297
rfingers 7.12502
rthumb 13.699 -46.6588
lclavicle 4.96962e-015 1.07344e-014
lhumerus -52.5571 2.52267 82.6179
lradius 38.549
lwrist -3.76943
lhand -8.62188 27.2576
lfingers 7.12502
lthumb 17.3104 56.5066
rfemur -45.3414 9.98517 18.2371
rtibia 38.4052
rfoot -18.596 -17.6215
rtoes 6.71982
lfemur -86.3164 -0.273099 -31.8711
ltibia 86.5664
lfoot -15.8692 11.0055
ltoes -21.4156
366
root 6.39814 17.095 8.77772 -154.419 6.20198 174.887
lowerback -1.52545 -1.0513 -3.79714
upperback -13.577 0.183321 -0.410736
thorax -13.915 1.31029 1.43839
lowerneck -8.17309 -6.45509 -3.20229
upperneck 48.3199 3.80175 -5.36182
head 20.9751 3.31868 -0.322253
rclavicle -2.65874e-015 1.23246e-014
rhumerus -45.4706 16.2008 -87.213
rradius 48.453
rwrist 2.73665
rhand -12.3725 -17.1405
rfingers 7.12502
rthumb 13.698 -46.6697
lclavicle -2.65874e-015 1.23246e-014
lhumerus -52.6039 2.5297 82.4376
lradius 38.4747
lwrist -4.88939
lhand -8.08786 26.828
lfingers 7.12502
lthumb 17.8243 56.0312
rfemur -45.0397 9.95242 18.2698
rtibia 38.5395
rfoot -18.9268 -17.6547
rtoes 6.52929
lfemur -86.7373 -0.357042 -32.0235
ltibia 85.2512
lfoot -15.8194 11.2867
ltoes -21.9644
367
root 6.40325 17.0928 8.69239 -154.45 6.24114 174.847
lowerback -1.50175 -1.03885 -3.78026
upperback -13.5538 0.188973 -0.450459
thorax -13.9013 1.30405 1.38578
lowerneck -8.20366 -6.39978 -3.16878
upperneck 48.2657 3.87913 -5.4052
head 20.9479 3.34323 -0.338334
rclavicle 1.19271e-015 -3.97569e-015
rhumerus -45.2956 16.3997 -87.3214
rradius 48.4505
rwrist 2.82604
rhand -12.4099 -17.14
rfingers 7.12502
rthumb 13.662 -46.6716
lclavicle 1.19271e-015 -3.97569e-015
lhumerus -52.6547 2.52677 82.2815
lradius 38.4363
lwrist -5.4783
lhand -7.69519 26.5181
lfingers 7.12502
lthumb 18.2021 55.6864
rfemur -44.7356 9.91022 18.3063
rtibia 38.6716
rfoot -19.2523 -17.6663
rtoes 6.32605
lfemur -87.0797 -0.424503 -32.1627
ltibia 83.8678
lfoot -15.6555 11.5393
ltoes -22.8089
